<svg id="Layer_1" data-name="Layer 1" xmlns="http://www.w3.org/2000/svg" viewBox="0 0 595.28 871.76"><defs><style>.cls-1{font-size:26.16px;}.cls-1,.cls-10,.cls-3,.cls-4,.cls-67,.cls-7,.cls-72,.cls-83,.cls-85{fill:#202223;}.cls-1,.cls-101,.cls-3,.cls-67,.cls-7,.cls-72,.cls-84,.cls-85{font-family:GoogleSans-Regular, Google Sans;}.cls-2{letter-spacing:-0.02em;}.cls-3{font-size:10.68px;}.cls-4,.cls-7{font-size:8px;}.cls-10,.cls-4,.cls-83{font-family:GoogleSans-Medium, Google Sans;}.cls-5{letter-spacing:-0.06em;}.cls-6{letter-spacing:0em;}.cls-8{letter-spacing:-0.01em;}.cls-9{letter-spacing:-0.02em;}.cls-10{font-size:9px;}.cls-11{letter-spacing:-0.04em;}.cls-12{letter-spacing:-0.01em;}.cls-13{letter-spacing:-0.01em;}.cls-14{letter-spacing:-0.01em;}.cls-15{letter-spacing:-0.01em;}.cls-16{letter-spacing:-0.02em;}.cls-17{letter-spacing:0em;}.cls-18{letter-spacing:-0.01em;}.cls-19{letter-spacing:-0.01em;}.cls-20{letter-spacing:-0.02em;}.cls-21{letter-spacing:-0.02em;}.cls-22{letter-spacing:0em;}.cls-23{letter-spacing:-0.01em;}.cls-24{letter-spacing:0em;}.cls-25{font-family:Roboto-Medium, Roboto;}.cls-26{letter-spacing:0em;}.cls-27{letter-spacing:-0.01em;}.cls-28{letter-spacing:0em;}.cls-29{letter-spacing:0em;}.cls-30{letter-spacing:-0.01em;}.cls-31{letter-spacing:-0.01em;}.cls-32{font-family:Roboto-Regular, Roboto;}.cls-33{letter-spacing:-0.01em;}.cls-34{letter-spacing:0em;}.cls-35{letter-spacing:-0.01em;}.cls-36{letter-spacing:-0.01em;}.cls-37{letter-spacing:-0.01em;}.cls-38{letter-spacing:-0.02em;}.cls-39{letter-spacing:-0.02em;}.cls-40{letter-spacing:-0.02em;}.cls-41{letter-spacing:-0.01em;}.cls-42{letter-spacing:-0.01em;}.cls-43{letter-spacing:-0.02em;}.cls-44{letter-spacing:-0.02em;}.cls-45{letter-spacing:-0.01em;}.cls-46{letter-spacing:0em;}.cls-47{letter-spacing:-0.01em;}.cls-48{letter-spacing:-0.01em;}.cls-49{letter-spacing:-0.02em;}.cls-50{letter-spacing:0em;}.cls-51{letter-spacing:-0.01em;}.cls-52{letter-spacing:-0.02em;}.cls-53{letter-spacing:-0.01em;}.cls-54{letter-spacing:-0.01em;}.cls-55{letter-spacing:-0.03em;}.cls-56{letter-spacing:-0.02em;}.cls-57{letter-spacing:-0.01em;}.cls-58{letter-spacing:-0.02em;}.cls-59{letter-spacing:0em;}.cls-60{letter-spacing:-0.02em;}.cls-61{letter-spacing:0em;}.cls-62{letter-spacing:-0.02em;}.cls-63{letter-spacing:-0.02em;}.cls-64{letter-spacing:-0.02em;}.cls-65{letter-spacing:-0.01em;}.cls-66{letter-spacing:0em;}.cls-101,.cls-67,.cls-72{font-size:7px;}.cls-68{letter-spacing:-0.12em;}.cls-69{letter-spacing:0em;}.cls-70,.cls-72{letter-spacing:-0.01em;}.cls-71{letter-spacing:-0.02em;}.cls-73{letter-spacing:0em;}.cls-74{letter-spacing:-0.01em;}.cls-75{letter-spacing:-0.01em;}.cls-76{letter-spacing:0em;}.cls-77{letter-spacing:-0.01em;}.cls-78{letter-spacing:-0.11em;}.cls-79{letter-spacing:-0.01em;}.cls-80{letter-spacing:-0.05em;}.cls-81{letter-spacing:-0.01em;}.cls-82{letter-spacing:-0.01em;}.cls-83,.cls-85{font-size:7.91px;}.cls-86{letter-spacing:-0.01em;}.cls-87{letter-spacing:-0.02em;}.cls-88{letter-spacing:-0.01em;}.cls-89{letter-spacing:-0.01em;}.cls-90{letter-spacing:-0.01em;}.cls-91{letter-spacing:0em;}.cls-92{letter-spacing:-0.02em;}.cls-93{letter-spacing:0em;}.cls-94{letter-spacing:-0.06em;}.cls-95{letter-spacing:-0.01em;}.cls-96{letter-spacing:-0.01em;}.cls-97{letter-spacing:-0.02em;}.cls-98{letter-spacing:-0.01em;}.cls-99{letter-spacing:-0.01em;}.cls-100{letter-spacing:-0.01em;}.cls-101,.cls-102{fill:#212323;}.cls-103{fill:none;}</style></defs><title>Artboard 1 copyresume</title><text class="cls-1" transform="translate(133.25 62.99)"><tspan class="cls-2">A</tspan><tspan x="16.87" y="0">vinash Sharma</tspan></text><text class="cls-3" transform="translate(133.25 78.86)">UXer. Coder. Animator</text><text class="cls-4" transform="translate(55.25 121.55)">EDUC<tspan class="cls-5" x="21.8" y="0">A</tspan><tspan class="cls-6" x="26.9" y="0">TION</tspan></text><text class="cls-7" transform="translate(133.25 132.9)">I<tspan class="cls-8" x="1.95" y="0">I</tspan><tspan class="cls-9" x="3.79" y="0">T</tspan><tspan x="7.95" y="0" xml:space="preserve"> Guwahati</tspan></text><text class="cls-7" transform="translate(133.25 143.41)">2016-2018</text><text class="cls-7" transform="translate(133.25 154.99)">8.64 CPI</text><text class="cls-10" transform="translate(229.17 122.4)">B.<tspan class="cls-11" x="8.05" y="0">T</tspan><tspan x="12.74" y="0">ech, Electricals &amp; Elect</tspan><tspan class="cls-12" x="107.4" y="0">r</tspan><tspan x="110.91" y="0">onics</tspan></text><text class="cls-10" transform="translate(133.25 122.4)">M.Des</text><text class="cls-7" transform="translate(229.17 132.9)">GGSIPU, Delhi</text><text class="cls-7" transform="translate(229.17 143.42)">2009-2013</text><text class="cls-7" transform="translate(229.17 154.99)">75%</text><text class="cls-10" transform="translate(381.17 122.4)">XII</text><text class="cls-7" transform="translate(381.17 132.9)">CBSE, Delhi</text><text class="cls-7" transform="translate(381.17 143.42)">2009</text><text class="cls-7" transform="translate(381.17 154.99)">88%</text><text class="cls-10" transform="translate(450.17 122.4)">X</text><text class="cls-7" transform="translate(450.17 132.9)">CBSE, Delhi</text><text class="cls-7" transform="translate(450.17 143.42)">2007</text><text class="cls-7" transform="translate(450.17 154.99)">83%</text><text class="cls-4" transform="translate(54.32 198.54)">EXPERIENCE</text><text class="cls-4" transform="translate(60.72 385.21)">PROJE<tspan class="cls-13" x="25.33" y="0">C</tspan><tspan class="cls-14" x="31.22" y="0">T</tspan><tspan class="cls-6" x="35.68" y="0">S</tspan></text><text class="cls-10" transform="translate(133.25 199.4)">Senior User Experience Designer | Publicis.Sapient | Jul 2018 - Present</text><text class="cls-7" transform="translate(133.25 211.38)">Worked on Web Accessibility and self-initiated project for New-joinee Onboarding</text><text class="cls-10" transform="translate(133.25 233.4)">UX Design Intern | Nutanix | M<tspan class="cls-15" x="124.31" y="0">a</tspan><tspan x="129.17" y="0">y 2017- Jul 2017</tspan></text><text class="cls-7" transform="translate(133.25 245.38)">Redesigned the web console of health moni<tspan class="cls-16" x="157.93" y="0">t</tspan><tspan class="cls-17" x="160.73" y="0">oring </tspan><tspan class="cls-18" x="181.43" y="0">tool </tspan><tspan x="197.04" y="0">for datacent</tspan><tspan class="cls-19" x="242.22" y="0">r</tspan><tspan x="245.13" y="0">e</tspan></text><text class="cls-10" transform="translate(133.25 267.46)"><tspan class="cls-20">A</tspan><tspan x="6.06" y="0">nd</tspan><tspan class="cls-21" x="16.86" y="0">r</tspan><tspan x="20.35" y="0">oid D</tspan><tspan class="cls-22" x="42.28" y="0">e</tspan><tspan class="cls-23" x="47.43" y="0">v</tspan><tspan x="52.29" y="0">eloper | </tspan><tspan class="cls-24" x="86.02" y="0">P</tspan><tspan x="91.33" y="0">aper</tspan><tspan class="cls-25" x="110.6" y="0">ﬂ</tspan><tspan class="cls-26" x="115.93" y="0">ite | M</tspan><tspan class="cls-27" x="141.49" y="0">a</tspan><tspan class="cls-26" x="146.35" y="0">y 2017- Jul</tspan><tspan class="cls-28" x="191.39" y="0"> </tspan><tspan class="cls-29" x="193.5" y="0">2017</tspan></text><text class="cls-7" transform="translate(133.25 279.15)">D<tspan class="cls-30" x="5.62" y="0">ev</tspan><tspan x="14.14" y="0">eloped the first </tspan><tspan class="cls-31" x="71.18" y="0">v</tspan><tspan x="75.25" y="0">ersion of paper</tspan><tspan class="cls-32" x="130.43" y="0">ﬂ</tspan><tspan x="134.97" y="0">ite android application</tspan></text><text class="cls-10" transform="translate(133.25 301.52)">Designer &amp; D<tspan class="cls-33" x="54.51" y="0">ev</tspan><tspan class="cls-26" x="64.5" y="0">eloper | Cognizant | M</tspan><tspan class="cls-15" x="156.24" y="0">a</tspan><tspan class="cls-34" x="161.1" y="0">y 2014- </tspan><tspan class="cls-28" x="194.39" y="0">M</tspan><tspan class="cls-35" x="202.37" y="0">a</tspan><tspan x="207.23" y="0">y 2016</tspan></text><text class="cls-7" transform="translate(133.25 312.95)">Designed and d<tspan class="cls-36" x="56.38" y="0">e</tspan><tspan class="cls-31" x="60.81" y="0">v</tspan><tspan x="64.88" y="0">eloped a complete enterprise app for CSR p</tspan><tspan class="cls-37" x="223.53" y="0">r</tspan><tspan x="226.43" y="0">og</tspan><tspan class="cls-9" x="235.97" y="0">r</tspan><tspan x="238.82" y="0">amme of Cognizant</tspan></text><text class="cls-10" transform="translate(133.25 335.58)">Indie <tspan class="cls-38" x="22.86" y="0">A</tspan><tspan class="cls-34" x="28.93" y="0">pp D</tspan><tspan class="cls-23" x="48.59" y="0">ev</tspan><tspan x="58.58" y="0">eloper | </tspan><tspan class="cls-39" x="92.31" y="0">A</tspan><tspan x="98.36" y="0">vion Labs, Google Pl</tspan><tspan class="cls-33" x="183.35" y="0">a</tspan><tspan x="188.21" y="0">y S</tspan><tspan class="cls-40" x="200.45" y="0">t</tspan><tspan x="203.84" y="0">o</tspan><tspan class="cls-41" x="209.3" y="0">r</tspan><tspan x="212.87" y="0">e | 2013-</tspan><tspan class="cls-28" x="248.27" y="0">P</tspan><tspan class="cls-42" x="253.63" y="0">r</tspan><tspan x="257.19" y="0">esent</tspan></text><text class="cls-7" transform="translate(133.25 346.76)">Independently built a <tspan class="cls-43" x="77.63" y="0">r</tspan><tspan class="cls-6" x="80.45" y="0">ange of clock widgets apps and an expense manager published on google pl</tspan><tspan class="cls-44" x="355.42" y="0">a</tspan><tspan x="359.54" y="0">y s</tspan><tspan class="cls-18" x="369.31" y="0">t</tspan><tspan class="cls-17" x="372.15" y="0">o</tspan><tspan class="cls-45" x="376.92" y="0">r</tspan><tspan x="379.86" y="0">e</tspan></text><text class="cls-4" transform="translate(41.59 662.4)"><tspan class="cls-18">A</tspan><tspan x="5.49" y="0">CHIEVEME</tspan><tspan class="cls-19" x="45.56" y="0">N</tspan><tspan class="cls-14" x="51.3" y="0">T</tspan><tspan class="cls-46" x="55.76" y="0">S</tspan></text><text class="cls-10" transform="translate(133.25 386.07)"><tspan class="cls-20">A</tspan><tspan x="6.06" y="0">nimated Short M</tspan><tspan class="cls-35" x="76.17" y="0">o</tspan><tspan class="cls-26" x="81.58" y="0">vie | </tspan><tspan class="cls-47" x="100.56" y="0">A</tspan><tspan x="106.77" y="0">ug 2017- April 2018</tspan></text><text class="cls-7" transform="translate(133.25 398.04)">P<tspan class="cls-36" x="4.61" y="0">r</tspan><tspan class="cls-6" x="7.54" y="0">oject Guide : Sheetal Gokhale</tspan></text><text class="cls-7" transform="translate(133.25 408.04)"><tspan class="cls-16">W</tspan><tspan x="7.43" y="0">orked on an 2D animated short m</tspan><tspan class="cls-14" x="127.57" y="0">o</tspan><tspan x="132.29" y="0">vie as Masters thesis project.</tspan></text><text class="cls-10" transform="translate(133.25 429.13)">Cluster Health Moni<tspan class="cls-48" x="83.58" y="0">t</tspan><tspan class="cls-34" x="86.98" y="0">oring Redesign | Nutanix Internship P</tspan><tspan class="cls-49" x="241.48" y="0">r</tspan><tspan x="244.97" y="0">oject | M</tspan><tspan class="cls-35" x="281.05" y="0">a</tspan><tspan x="285.91" y="0">y 2017-</tspan><tspan class="cls-50" x="316.5" y="0"> </tspan><tspan x="318.61" y="0">Jul 2017</tspan></text><text class="cls-7" transform="translate(133.25 440.81)">P<tspan class="cls-36" x="4.61" y="0">r</tspan><tspan class="cls-6" x="7.54" y="0">oject Manager : Sandeep Karmakar</tspan></text><text class="cls-7" transform="translate(133.25 451.81)">As internship p<tspan class="cls-51" x="53.74" y="0">r</tspan><tspan x="56.64" y="0">oject I </tspan><tspan class="cls-18" x="80.68" y="0">r</tspan><tspan x="83.6" y="0">edesigned a component of PRISM web console that is used </tspan><tspan class="cls-52" x="298.67" y="0">t</tspan><tspan x="301.47" y="0">o moni</tspan><tspan class="cls-53" x="326.16" y="0">t</tspan><tspan class="cls-17" x="329.01" y="0">or and </tspan></text><text class="cls-7" transform="translate(133.25 462.81)">t<tspan class="cls-54" x="2.93" y="0">r</tspan><tspan class="cls-6" x="5.85" y="0">oubleshoot cluster health.</tspan></text><text class="cls-10" transform="translate(133.25 483.18)">Moments | Semester<tspan class="cls-55" x="86.83" y="0"> </tspan><tspan x="88.66" y="0">Thesis P</tspan><tspan class="cls-56" x="122.77" y="0">r</tspan><tspan x="126.25" y="0">oject | </tspan><tspan class="cls-57" x="154.36" y="0">F</tspan><tspan x="159.26" y="0">eb 2017- </tspan><tspan class="cls-58" x="197.77" y="0">A</tspan><tspan class="cls-59" x="203.84" y="0">pr 2017</tspan></text><text class="cls-7" transform="translate(133.25 507)">An information management system design for design department, I<tspan class="cls-8" x="247.6" y="0">I</tspan><tspan class="cls-60" x="249.44" y="0">T</tspan><tspan class="cls-61" x="253.6" y="0" xml:space="preserve"> Guwahati</tspan></text><text class="cls-7" transform="translate(133.25 495.8)">P<tspan class="cls-36" x="4.61" y="0">r</tspan><tspan class="cls-6" x="7.54" y="0">oject Guide : Sharmishtha Banerjee</tspan></text><text class="cls-10" transform="translate(133.25 530.24)">Out<tspan class="cls-57" x="16.27" y="0">r</tspan><tspan x="19.83" y="0">each | Company P</tspan><tspan class="cls-21" x="95.17" y="0">r</tspan><tspan x="98.67" y="0">oject | M</tspan><tspan class="cls-23" x="134.75" y="0">a</tspan><tspan x="139.61" y="0">y 2014- M</tspan><tspan class="cls-24" x="180.88" y="0">a</tspan><tspan x="185.76" y="0">y 2016</tspan></text><text class="cls-7" transform="translate(133.25 541.43)">An app for handling CSR <tspan class="cls-36" x="89.66" y="0">e</tspan><tspan class="cls-31" x="94.09" y="0">v</tspan><tspan x="98.16" y="0">ents of Cognizant. Designed the complete app as well as coded the and</tspan><tspan class="cls-62" x="356.7" y="0">r</tspan><tspan class="cls-17" x="359.53" y="0">oid </tspan></text><text class="cls-7" transform="translate(133.25 551.43)"><tspan class="cls-31">v</tspan><tspan x="4.06" y="0">ersion</tspan></text><text class="cls-10" transform="translate(133.25 575.24)">D<tspan class="cls-15" x="6.51" y="0">a</tspan><tspan x="11.37" y="0">ybook | </tspan><tspan class="cls-63" x="44.18" y="0">A</tspan><tspan x="50.24" y="0">vion Labs, Google Pl</tspan><tspan class="cls-33" x="135.22" y="0">a</tspan><tspan class="cls-26" x="140.09" y="0">y S</tspan><tspan class="cls-64" x="152.32" y="0">t</tspan><tspan class="cls-34" x="155.72" y="0">o</tspan><tspan class="cls-65" x="161.18" y="0">r</tspan><tspan x="164.74" y="0">e | JUL 2016- O</tspan><tspan class="cls-28" x="227.87" y="0">n</tspan><tspan x="233.12" y="0">going</tspan></text><text class="cls-7" transform="translate(133.25 587.43)">Designed and d<tspan class="cls-36" x="56.38" y="0">e</tspan><tspan class="cls-31" x="60.81" y="0">v</tspan><tspan x="64.88" y="0">eloped an expense manager app with focus on simplicit</tspan><tspan class="cls-5" x="265.2" y="0">y</tspan><tspan class="cls-61" x="268.87" y="0">. </tspan></text><text class="cls-10" transform="translate(133.25 610.36)">UCCW clock widget skins | <tspan class="cls-38" x="114.19" y="0">A</tspan><tspan class="cls-26" x="120.26" y="0">viot</tspan><tspan class="cls-56" x="136.46" y="0">r</tspan><tspan x="139.94" y="0">on Labs, Google Pl</tspan><tspan class="cls-35" x="217.72" y="0">a</tspan><tspan x="222.58" y="0">y S</tspan><tspan class="cls-12" x="234.81" y="0">t</tspan><tspan x="238.2" y="0">o</tspan><tspan class="cls-57" x="243.66" y="0">r</tspan><tspan x="247.22" y="0">e | Dec 2013- D</tspan><tspan class="cls-66" x="310.08" y="0">e</tspan><tspan x="315.28" y="0">c 2014</tspan></text><text class="cls-7" transform="translate(133.25 622.55)">Built a <tspan class="cls-62" x="23.72" y="0">r</tspan><tspan class="cls-6" x="26.55" y="0">ange of clock widget skins for UCCW app.</tspan></text><text class="cls-67" transform="translate(485.03 74.04)">http:<tspan class="cls-68" x="14.57" y="0">/</tspan><tspan class="cls-69" x="16.79" y="0">/</tspan><tspan class="cls-70" x="19.85" y="0">a</tspan><tspan x="23.52" y="0">viot</tspan><tspan class="cls-71" x="35.43" y="0">r</tspan><tspan x="37.94" y="0">on.me</tspan></text><text class="cls-67" transform="translate(490.11 50.2)">+91-9910066488</text><text class="cls-67" transform="translate(465.62 62.12)"><tspan class="cls-70">a</tspan><tspan x="3.67" y="0">vio.sharma@gmail.com</tspan></text><text class="cls-72" transform="translate(438.62 85.97)">https://www.behance.net/oneavi</text><text class="cls-7" transform="translate(133.25 662.4)">App<tspan class="cls-53" x="14.92" y="0">r</tspan><tspan class="cls-18" x="17.85" y="0">o</tspan><tspan x="22.54" y="0">x 1.7 lac </tspan><tspan class="cls-51" x="51.48" y="0">t</tspan><tspan x="54.31" y="0">otal downloads of cl</tspan><tspan class="cls-73" x="126.96" y="0">o</tspan><tspan class="cls-6" x="131.72" y="0">ck widget app on google pl</tspan><tspan class="cls-53" x="229.28" y="0">a</tspan><tspan x="233.45" y="0">ys</tspan><tspan class="cls-74" x="241.36" y="0">t</tspan><tspan x="244.22" y="0">o</tspan><tspan class="cls-75" x="248.99" y="0">r</tspan><tspan x="251.92" y="0">e</tspan></text><text class="cls-7" transform="translate(133.25 674.4)"><tspan class="cls-18">F</tspan><tspan x="4.17" y="0">eaturing of the clock widget app in </tspan><tspan class="cls-76" x="131.53" y="0">a</tspan><tspan x="135.75" y="0">n article on Phonea</tspan><tspan class="cls-77" x="204.77" y="0">r</tspan><tspan x="207.68" y="0">ena </tspan></text><text class="cls-7" transform="translate(357.05 674.4)">https:<tspan class="cls-78" x="20.43" y="0">/</tspan><tspan x="23.06" y="0">/goo.gl/b8n54M</tspan></text><text class="cls-7" transform="translate(133.25 686.4)">10,000+ downloads of D<tspan class="cls-18" x="88.65" y="0">a</tspan><tspan x="92.82" y="0">ybook- the </tspan><tspan class="cls-73" x="134.53" y="0">e</tspan><tspan x="139.02" y="0">xpense manager app on google pl</tspan><tspan class="cls-18" x="261.35" y="0">a</tspan><tspan x="265.52" y="0">y s</tspan><tspan class="cls-18" x="275.28" y="0">t</tspan><tspan class="cls-17" x="278.13" y="0">o</tspan><tspan class="cls-45" x="282.9" y="0">r</tspan><tspan x="285.84" y="0">e</tspan></text><text class="cls-7" transform="translate(133.25 698.4)">Selection in 1st <tspan class="cls-79" x="55.16" y="0">r</tspan><tspan x="58.06" y="0">ound of Intel</tspan><tspan class="cls-80" x="103.69" y="0">’</tspan><tspan class="cls-6" x="105.07" y="0">s </tspan><tspan class="cls-81" x="110.71" y="0">P</tspan><tspan x="115.26" y="0">e</tspan><tspan class="cls-53" x="119.77" y="0">r</tspan><tspan x="122.69" y="0">ceptual Challenge-2013, among 750 ac</tspan><tspan class="cls-82" x="263.39" y="0">r</tspan><tspan x="266.27" y="0">oss the world</tspan></text><text class="cls-4" transform="translate(75.77 736.96)">SKILLS</text><text class="cls-83" transform="translate(133.25 736.95) scale(1 1.01)">Design <tspan class="cls-84" x="27.47" y="0">: </tspan></text><text class="cls-85" transform="translate(164.25 736.88) scale(1 1.01)">S<tspan class="cls-86" x="4.44" y="0">k</tspan><tspan x="8.36" y="0">etching, B</tspan><tspan class="cls-87" x="43.97" y="0">r</tspan><tspan x="46.79" y="0">ains</tspan><tspan class="cls-88" x="60.95" y="0">t</tspan><tspan x="63.78" y="0">orming, Concept gene</tspan><tspan class="cls-87" x="144.38" y="0">r</tspan><tspan x="147.19" y="0">ation, Wi</tspan><tspan class="cls-89" x="178.22" y="0">r</tspan><tspan x="181.12" y="0">ef</tspan><tspan class="cls-87" x="188.57" y="0">r</tspan><tspan x="191.38" y="0">aming, Information A</tspan><tspan class="cls-86" x="266.32" y="0">r</tspan><tspan x="269.21" y="0">chitectu</tspan><tspan class="cls-86" x="298.78" y="0">r</tspan><tspan x="301.67" y="0">e, Scenario Building, </tspan></text><text class="cls-85" transform="translate(133.25 747.95) scale(1 1.01)">Illust<tspan class="cls-87" x="16.34" y="0">r</tspan><tspan x="19.16" y="0">ations, Low and high </tspan><tspan class="cls-32" x="93.9" y="0">ﬁ</tspan><tspan x="98.28" y="0">delity p</tspan><tspan class="cls-90" x="124.49" y="0">r</tspan><tspan x="127.38" y="0">o</tspan><tspan class="cls-86" x="132.1" y="0">t</tspan><tspan x="134.92" y="0">otyping, Animation.</tspan></text><text class="cls-83" transform="translate(133.25 760.95) scale(1 1.01)">Softwa<tspan class="cls-88" x="25.82" y="0">r</tspan><tspan class="cls-91" x="28.94" y="0">es : </tspan></text><text class="cls-85" transform="translate(176.1 760.95) scale(1 1.01)">Sketch, Axure RP, XD, Figma, Pho<tspan class="cls-86" x="117.66" y="0">t</tspan><tspan x="120.49" y="0">oshop, Illust</tspan><tspan class="cls-92" x="162.93" y="0">r</tspan><tspan x="165.75" y="0">a</tspan><tspan class="cls-86" x="169.95" y="0">t</tspan><tspan class="cls-93" x="172.77" y="0">o</tspan><tspan class="cls-94" x="177.49" y="0">r</tspan><tspan x="179.98" y="0">, After </tspan><tspan class="cls-95" x="203.71" y="0">Ef</tspan><tspan class="cls-96" x="208" y="0">f</tspan><tspan x="213.41" y="0">ects, And</tspan><tspan class="cls-86" x="247.05" y="0">r</tspan><tspan class="cls-93" x="249.95" y="0">oid Studio, JIRA</tspan></text><text class="cls-83" transform="translate(133.25 773.95) scale(1 1.01)">P<tspan class="cls-97" x="4.71" y="0">r</tspan><tspan x="7.77" y="0">og</tspan><tspan class="cls-98" x="17.42" y="0">r</tspan><tspan x="20.5" y="0">amming : </tspan></text><text class="cls-85" transform="translate(188.49 773.95) scale(1 1.01)">J<tspan class="cls-99" x="4.19" y="0">av</tspan><tspan class="cls-91" x="12.35" y="0">a, </tspan><tspan class="cls-98" x="20.29" y="0">H</tspan><tspan x="25.7" y="0">TML, CSS, Basic J</tspan><tspan class="cls-100" x="87.92" y="0">av</tspan><tspan class="cls-91" x="96.08" y="0">aScript, C, C++</tspan></text><text class="cls-83" transform="translate(133.25 786.95) scale(1 1.01)">P<tspan class="cls-97" x="4.71" y="0">r</tspan><tspan x="7.77" y="0">oject Skills :</tspan></text><text class="cls-85" transform="translate(184.43 786.95) scale(1 1.01)"><tspan xml:space="preserve"> Agile Methodology</tspan></text><text class="cls-101" transform="translate(290.57 844.64)">END</text><path class="cls-102" d="M317.19,842.6a.45.45,0,0,1,.12-.32.44.44,0,0,1,.34-.13.48.48,0,0,1,.35.13.45.45,0,0,1,.12.32.43.43,0,0,1-.12.31.48.48,0,0,1-.35.12.44.44,0,0,1-.34-.12.43.43,0,0,1-.12-.31"/><path class="cls-102" d="M277.17,842.6a.41.41,0,0,1,.45-.45.48.48,0,0,1,.35.13.45.45,0,0,1,.12.32.43.43,0,0,1-.12.31.48.48,0,0,1-.35.12.44.44,0,0,1-.34-.12.42.42,0,0,1-.11-.31"/><rect class="cls-103" x="277.17" y="838.65" width="40.95" height="7.88"/></svg>