<svg xmlns="http://www.w3.org/2000/svg" xmlns:xlink="http://www.w3.org/1999/xlink" viewBox="0 0 375 1967">
  <defs>
    <style>
      .cls-1 {
        clip-path: url(#clip-resume-small);
      }

      .cls-2 {
        fill: rgba(255,255,255,0);
        stroke: #b4b4b4;
      }

      .cls-3 {
        fill: url(#linear-gradient);
      }

      .cls-13, .cls-4, .cls-7, .cls-9 {
        font-size: 14px;
      }

      .cls-10, .cls-4 {
        font-family: GoogleSans-Regular, Google Sans;
      }

      .cls-5 {
        fill: #5837b4;
      }

      .cls-5, .cls-6 {
        font-size: 18px;
        font-family: GoogleSans-Bold, Google Sans;
        font-weight: 700;
        letter-spacing: 0.02em;
      }

      .cls-6 {
        fill: #4269c7;
      }

      .cls-13, .cls-7, .cls-9 {
        font-family: GoogleSans-Medium, Google Sans;
        font-weight: 500;
      }

      .cls-8 {
        font-family: GoogleSans-Italic, Google Sans;
        font-style: italic;
      }

      .cls-10, .cls-11, .cls-8 {
        font-weight: 400;
      }

      .cls-9 {
        fill: #202223;
      }

      .cls-10 {
        font-size: 12px;
      }

      .cls-11, .cls-12 {
        font-family: SegoeUI, Segoe UI;
      }

      .cls-14 {
        stroke: none;
      }

      .cls-15 {
        fill: none;
      }

      .cls-16 {
        fill: #fff;
      }
        
        #project_01{
        cursor:pointer;
        }
    </style>
    <linearGradient id="linear-gradient" x2="1.051" y2="1.06" gradientUnits="objectBoundingBox">
      <stop offset="0" stop-color="#8017ea"/>
      <stop offset="1" stop-color="#e114a3"/>
    </linearGradient>
    <clipPath id="clip-resume-small">
      <rect width="375" height="1967"/>
    </clipPath>
  </defs>
  <g id="resume-small" class="cls-1">
    <rect class="cls-16" width="375" height="1967"/>
    <g id="Rectangle_4" data-name="Rectangle 4" class="cls-2" transform="translate(22 1239)">
      <rect class="cls-14" width="334" height="146" rx="15"/>
      <rect class="cls-15" x="0.5" y="0.5" width="333" height="145" rx="14.5"/>
    </g>
    <g id="Rectangle_5" data-name="Rectangle 5" class="cls-2" transform="translate(22 1399)">
      <rect class="cls-14" width="334" height="129" rx="15"/>
      <rect class="cls-15" x="0.5" y="0.5" width="333" height="128" rx="14.5"/>
    </g>
    <g id="Rectangle_6" data-name="Rectangle 6" class="cls-2" transform="translate(22 1541)">
      <rect class="cls-14" width="334" height="108" rx="15"/>
      <rect class="cls-15" x="0.5" y="0.5" width="333" height="107" rx="14.5"/>
    </g>
    <path id="Intersection_1" data-name="Intersection 1" class="cls-3" d="M-113.536,243.808a5.281,5.281,0,0,1-2.176-1.936,5.183,5.183,0,0,1-.768-2.8,4.764,4.764,0,0,1,1.952-4.048,8.013,8.013,0,0,1,4.927-1.456,11.122,11.122,0,0,1,2.736.32,7.061,7.061,0,0,1,1.936.735v-.992a3.675,3.675,0,0,0-1.28-2.928,4.771,4.771,0,0,0-3.232-1.1,5.444,5.444,0,0,0-2.528.592,4.621,4.621,0,0,0-1.824,1.648l-2.048-1.536a6.55,6.55,0,0,1,2.64-2.3,8.288,8.288,0,0,1,3.728-.832,7.454,7.454,0,0,1,5.233,1.744,6.126,6.126,0,0,1,1.9,4.752V244h-2.592v-2.335h-.128a5.838,5.838,0,0,1-2.112,2.016,6.111,6.111,0,0,1-3.168.832A7.064,7.064,0,0,1-113.536,243.808Zm.976-7.1a2.959,2.959,0,0,0-1.136,2.4,2.668,2.668,0,0,0,1.024,2.176,3.977,3.977,0,0,0,2.592.832,4.916,4.916,0,0,0,2.56-.7,5.331,5.331,0,0,0,1.888-1.888,4.974,4.974,0,0,0,.7-2.592,6.727,6.727,0,0,0-1.887-.832,8.587,8.587,0,0,0-2.369-.32A5.247,5.247,0,0,0-112.56,236.7Zm-57.808,7.1a5.281,5.281,0,0,1-2.176-1.936,5.191,5.191,0,0,1-.768-2.8,4.764,4.764,0,0,1,1.952-4.048,8.014,8.014,0,0,1,4.928-1.456,11.133,11.133,0,0,1,2.736.32,7.084,7.084,0,0,1,1.936.735v-.992a3.673,3.673,0,0,0-1.281-2.928,4.771,4.771,0,0,0-3.232-1.1,5.446,5.446,0,0,0-2.528.592,4.618,4.618,0,0,0-1.823,1.648l-2.048-1.536a6.547,6.547,0,0,1,2.641-2.3,8.285,8.285,0,0,1,3.728-.832,7.451,7.451,0,0,1,5.232,1.744,6.127,6.127,0,0,1,1.9,4.752V244h-2.592v-2.335h-.129A5.835,5.835,0,0,1-164,243.68a6.113,6.113,0,0,1-3.168.832A7.065,7.065,0,0,1-170.368,243.808Zm.977-7.1a2.957,2.957,0,0,0-1.137,2.4,2.671,2.671,0,0,0,1.024,2.176,3.98,3.98,0,0,0,2.592.832,4.919,4.919,0,0,0,2.561-.7,5.328,5.328,0,0,0,1.887-1.888,4.975,4.975,0,0,0,.7-2.592,6.721,6.721,0,0,0-1.888-.832,8.585,8.585,0,0,0-2.368-.32A5.245,5.245,0,0,0-169.392,236.7Zm-36.816,6.177a8.225,8.225,0,0,1-3.072-4.577l2.592-1.056a6.677,6.677,0,0,0,2.016,3.36,5.026,5.026,0,0,0,3.456,1.312,5.3,5.3,0,0,0,3.36-1.072,3.512,3.512,0,0,0,1.376-2.928,3.382,3.382,0,0,0-1.168-2.641,11.334,11.334,0,0,0-3.824-1.936l-1.44-.512a11.482,11.482,0,0,1-3.968-2.272,5.033,5.033,0,0,1-1.535-3.9,5.484,5.484,0,0,1,.9-3.024,6.408,6.408,0,0,1,2.5-2.224,7.652,7.652,0,0,1,3.584-.833,7.644,7.644,0,0,1,3.456.736,7.193,7.193,0,0,1,2.352,1.792,6.717,6.717,0,0,1,1.232,2.08l-2.56,1.088a4.284,4.284,0,0,0-1.456-2.144,4.482,4.482,0,0,0-2.993-.96,4.686,4.686,0,0,0-3.008.993,3.062,3.062,0,0,0-1.248,2.5,2.685,2.685,0,0,0,1.057,2.192,10.841,10.841,0,0,0,3.2,1.584l1.5.511a12.621,12.621,0,0,1,4.544,2.641,5.719,5.719,0,0,1,1.633,4.3,5.977,5.977,0,0,1-1.137,3.712,6.691,6.691,0,0,1-2.864,2.209,9.338,9.338,0,0,1-3.551.7A8.181,8.181,0,0,1-206.208,242.88Zm-40.352.4a6.725,6.725,0,0,1-2.5-3.152l2.432-1.088a4.889,4.889,0,0,0,1.808,2.272,4.659,4.659,0,0,0,2.641.8,5.194,5.194,0,0,0,2.624-.624,1.951,1.951,0,0,0,1.088-1.776,1.938,1.938,0,0,0-.864-1.648,7.98,7.98,0,0,0-2.72-1.073l-1.984-.511a7.12,7.12,0,0,1-3.2-1.633,3.863,3.863,0,0,1-1.248-2.975,3.885,3.885,0,0,1,.848-2.48,5.43,5.43,0,0,1,2.256-1.648,7.946,7.946,0,0,1,3.04-.576,7.782,7.782,0,0,1,3.824.928,5.249,5.249,0,0,1,2.384,2.592l-2.369,1.088a3.949,3.949,0,0,0-3.872-2.176,4.379,4.379,0,0,0-2.352.624,1.832,1.832,0,0,0-1.008,1.584,1.775,1.775,0,0,0,.7,1.456,5.611,5.611,0,0,0,2.112.913l2.368.607a7.774,7.774,0,0,1,3.616,1.808,3.959,3.959,0,0,1,1.216,2.928,4.242,4.242,0,0,1-.864,2.641,5.492,5.492,0,0,1-2.336,1.743,8.459,8.459,0,0,1-3.263.608A7.459,7.459,0,0,1-246.56,243.28Zm-16.128.528a5.279,5.279,0,0,1-2.175-1.936,5.184,5.184,0,0,1-.769-2.8,4.764,4.764,0,0,1,1.952-4.048,8.014,8.014,0,0,1,4.928-1.456,11.133,11.133,0,0,1,2.736.32,7.084,7.084,0,0,1,1.936.735v-.992a3.675,3.675,0,0,0-1.28-2.928,4.771,4.771,0,0,0-3.232-1.1,5.441,5.441,0,0,0-2.528.592,4.615,4.615,0,0,0-1.824,1.648l-2.048-1.536a6.553,6.553,0,0,1,2.641-2.3,8.285,8.285,0,0,1,3.728-.832,7.451,7.451,0,0,1,5.232,1.744,6.124,6.124,0,0,1,1.9,4.752V244h-2.592v-2.335h-.128a5.845,5.845,0,0,1-2.112,2.016,6.111,6.111,0,0,1-3.168.832A7.068,7.068,0,0,1-262.688,243.808Zm.977-7.1a2.957,2.957,0,0,0-1.136,2.4,2.67,2.67,0,0,0,1.023,2.176,3.98,3.98,0,0,0,2.592.832,4.917,4.917,0,0,0,2.56-.7,5.338,5.338,0,0,0,1.888-1.888,4.983,4.983,0,0,0,.7-2.592,6.721,6.721,0,0,0-1.888-.832,8.585,8.585,0,0,0-2.368-.32A5.245,5.245,0,0,0-261.712,236.7Zm139.728,7.3V233.952a4.829,4.829,0,0,0-.928-3.3,3.528,3.528,0,0,0-2.752-1.023,3.725,3.725,0,0,0-2.208.7,4.745,4.745,0,0,0-1.552,1.888,5.908,5.908,0,0,0-.561,2.56V244h-2.72V233.984a4.89,4.89,0,0,0-.928-3.328,3.485,3.485,0,0,0-2.72-1.023,3.669,3.669,0,0,0-2.209.72,4.86,4.86,0,0,0-1.552,1.92,6.014,6.014,0,0,0-.56,2.576V244h-2.72V227.68h2.592v2.4h.128A5.653,5.653,0,0,1-138.56,228a5.764,5.764,0,0,1,2.976-.832,5.593,5.593,0,0,1,3.12.864,4.835,4.835,0,0,1,1.9,2.3,6.662,6.662,0,0,1,2.289-2.3,6.255,6.255,0,0,1,3.312-.864,5.2,5.2,0,0,1,4.24,1.712,7.063,7.063,0,0,1,1.424,4.656V244Zm-33.408,0V227.68h2.592V230.3h.128a4.378,4.378,0,0,1,1.857-2.224,5.265,5.265,0,0,1,2.88-.88,5.169,5.169,0,0,1,1.92.32v2.944a5.085,5.085,0,0,0-2.3-.512,3.8,3.8,0,0,0-2.176.672,4.837,4.837,0,0,0-1.584,1.808,5.223,5.223,0,0,0-.592,2.448V244Zm-23.456,0V233.952a4.293,4.293,0,0,0-1.12-3.264,4.075,4.075,0,0,0-2.912-1.056,3.949,3.949,0,0,0-2.352.768,5.476,5.476,0,0,0-1.7,1.984,5.472,5.472,0,0,0-.624,2.528V244h-2.72V221.088h2.72v6.753l-.128,2.239h.128a5.341,5.341,0,0,1,2.128-2.08,6.311,6.311,0,0,1,3.184-.832,5.794,5.794,0,0,1,4.544,1.744,6.656,6.656,0,0,1,1.568,4.623V244Zm-42.464,0V233.952a4.29,4.29,0,0,0-1.121-3.264,4.071,4.071,0,0,0-2.911-1.056,3.954,3.954,0,0,0-2.353.768,5.474,5.474,0,0,0-1.7,1.984,5.472,5.472,0,0,0-.624,2.528V244h-2.721V221.088h2.721v6.753l-.129,2.239h.129a5.335,5.335,0,0,1,2.128-2.08,6.311,6.311,0,0,1,3.184-.832,5.8,5.8,0,0,1,4.544,1.744,6.656,6.656,0,0,1,1.568,4.623V244Zm-49.856,0V233.952a4.352,4.352,0,0,0-1.088-3.3,4.169,4.169,0,0,0-2.975-1.023,3.976,3.976,0,0,0-2.353.735A4.95,4.95,0,0,0-279.2,232.3a5.728,5.728,0,0,0-.576,2.512V244h-2.72V227.68h2.592v2.4h.128a5.494,5.494,0,0,1,2.144-2.064,6.183,6.183,0,0,1,3.136-.848,5.761,5.761,0,0,1,4.5,1.712,6.671,6.671,0,0,1,1.552,4.656V244Zm-18.3,0V227.68h2.688V244Zm-11.9,0-6.593-16.32h2.912L-300,240.8h.064l5.12-13.12h2.848L-298.624,244Zm-8.672,0-2.3-6.3h-9.887l-2.3,6.3h-2.976l8.671-22.912h3.073l8.7,22.912Zm-8.224-17.12-3.039,8.256h8.032l-3.04-8.256-.928-2.464h-.128ZM-289.5,224.1a1.878,1.878,0,0,1-.576-1.376,1.823,1.823,0,0,1,.576-1.36,1.905,1.905,0,0,1,1.376-.561,1.907,1.907,0,0,1,1.376.561,1.826,1.826,0,0,1,.576,1.36,1.907,1.907,0,0,1-.561,1.376,1.863,1.863,0,0,1-1.391.576A1.88,1.88,0,0,1-289.5,224.1Z" transform="translate(364 -172)"/>
    <text id="UXer._Coder._Animator" data-name="UXer. Coder. Animator" class="cls-4" transform="translate(36 81)"><tspan x="0" y="13">UXer. Coder. Animator</tspan></text>
    <text id="avio.sharma_gmail.com" data-name="avio.sharma@gmail.com" class="cls-4" transform="translate(36 136)"><tspan x="0" y="0">avio.sharma@gmail.com</tspan></text>
    <text id="_91-9910066488" data-name="+91-9910066488" class="cls-4" transform="translate(36 153)"><tspan x="0" y="0">+91-9910066488</tspan></text>
    <text id="Education" class="cls-5" transform="translate(188 226)"><tspan x="-44.775" y="0">Education</tspan></text>
    <text id="Experience" class="cls-5" transform="translate(189 535)"><tspan x="-49.968" y="0">Experience</tspan></text>
    <text id="Projects" class="cls-6" transform="translate(188 1094)"><tspan x="-37.089" y="0">Projects</tspan></text>
    <text id="B.Tech_Electricals_Electronics_GGSIPU_Delhi_2009-2013_" data-name="B.Tech, Electricals &amp; Electronics GGSIPU,Delhi
2009-2013
" class="cls-7" transform="translate(36 311)"><tspan x="0" y="13">B.Tech, Electricals &amp; Electronics GGSIPU,Delhi</tspan><tspan class="cls-8"><tspan x="0" y="30">2009-2013</tspan></tspan></text>
    <text id="Class_X_C.B.S.E_Delhi_2007_" data-name="Class X, C.B.S.E, Delhi
2007
" class="cls-7" transform="translate(36 369.5)"><tspan x="0" y="13">Class X, C.B.S.E, Delhi</tspan><tspan class="cls-8"><tspan x="0" y="30">2007</tspan></tspan></text>
    <text id="M.Des_IIT_Guwahati_2016-2018" data-name="M.Des, IIT Guwahati
2016-2018" class="cls-7" transform="translate(36 255)"><tspan x="0" y="13">M.Des, IIT Guwahati</tspan><tspan class="cls-8"><tspan x="0" y="30">2016-2018</tspan></tspan></text>
    <text id="Class_XII_Science_C.B.S.E_Delhi_2009_" data-name="Class XII, Science C.B.S.E, Delhi
2009
" class="cls-7" transform="translate(36 424)"><tspan x="0" y="13">Class XII, Science C.B.S.E, Delhi</tspan><tspan class="cls-8"><tspan x="0" y="30">2009</tspan></tspan></text>
    <text id="Senior_UX_Designer_Publicis.Sapient_Jul_2018_-_Present_Worked_on_Web_Accessibility_and_self-initiated_project_for_New-joinee_Onboarding" data-name="Senior UX Designer | Publicis.Sapient
Jul 2018 - Present
Worked on Web Accessibility and self-initiated project for New-joinee Onboarding" class="cls-9" transform="translate(36 568)"><tspan x="0" y="13">Senior UX Designer | Publicis.Sapient</tspan><tspan x="0" y="30">Jul 2018 - Present</tspan><tspan class="cls-10"><tspan x="0" y="46">Worked on Web Accessibility and self-initiated project </tspan><tspan x="0" y="61">for New-joinee Onboarding</tspan></tspan></text>
    <text id="UX_Design_Intern_Nutanix_May_2017-_Jul_2017_Redesigned_the_web_console_of_health_monitoring_tool_for_datacentre" data-name="UX Design Intern | Nutanix
May 2017- Jul 2017
Redesigned the web console of health monitoring tool for datacentre" class="cls-9" transform="translate(36 664)"><tspan x="0" y="13">UX Design Intern | Nutanix</tspan><tspan x="0" y="30">May 2017- Jul 2017</tspan><tspan class="cls-10"><tspan x="0" y="46">Redesigned the web console of health monitoring tool </tspan></tspan></text>
    <text id="Android_Developer_Paper_ite_May_2017-_Jul_2017_Developed_the_first_version_of_paper_ite_android_application" data-name="Android Developer | Paperﬂite
May 2017- Jul 2017
Developed the first version of paperﬂite android application" class="cls-9" transform="translate(36.5 747)"><tspan x="0" y="15">Android Developer | Paper</tspan><tspan class="cls-11" y="15">ﬂ</tspan><tspan y="15">ite</tspan><tspan x="0" y="32">May 2017- Jul 2017</tspan><tspan class="cls-10"><tspan x="0" y="49">Developed the first version of paper</tspan><tspan class="cls-12" y="49">ﬂ</tspan><tspan y="49">ite android </tspan><tspan x="0" y="64">application</tspan></tspan></text>
    <text id="Designer_Developer_Cognizant_May_2014-_May_2016_Designed_and_developed_a_complete_enterprise_app_for_CSR_programme_of_Cognizant" data-name="Designer &amp; Developer | Cognizant
May 2014- May 2016
Designed and developed a complete enterprise app for CSR programme of Cognizant" class="cls-9" transform="translate(36 846)"><tspan x="0" y="13">Designer &amp; Developer | Cognizant</tspan><tspan x="0" y="30">May 2014- May 2016</tspan><tspan class="cls-10"><tspan x="0" y="46">Designed and developed a complete enterprise app for </tspan><tspan x="0" y="61">CSR programme of Cognizant</tspan></tspan></text>
    <text id="Indie_App_Developer_Avion_Labs_Google_Play_Store_2013-Present_Independently_built_a_range_of_clock_widgets_apps_and_an_expense_manager_published_on_google_play_store" data-name="Indie App Developer | Avion Labs, Google Play Store
2013-Present
Independently built a range of clock widgets apps and an expense manager published on google play store" class="cls-9" transform="translate(36 940)"><tspan x="0" y="13">Indie App Developer | Avion Labs, Google Play </tspan><tspan x="0" y="30">Store</tspan><tspan x="0" y="47">2013-Present</tspan><tspan class="cls-10"><tspan x="0" y="63">Independently built a range of clock widgets apps and </tspan><tspan x="0" y="78">an expense manager published on google play store</tspan></tspan></text>
    <text id="Cluster_Health_Monitoring_Redesign_Nutanix_Internship_Project_May_2017-_Jul_2017_Project_Manager_:_Sandeep_Karmakar_As_internship_project_I_redesigned_a_component_of_PRISM_web_console_that_is_used_to_monitor_and_troubleshoot_cluster_health._" data-name="Cluster Health Monitoring Redesign
Nutanix Internship Project
May 2017- Jul 2017
Project Manager : Sandeep Karmakar
As internship project I redesigned a component of PRISM web console that is used to monitor and troubleshoot cluster health.
" class="cls-9" transform="translate(36 1255)"><tspan x="0" y="13">Cluster Health Monitoring Redesign</tspan><tspan x="0" y="30">Nutanix Internship Project</tspan><tspan x="0" y="47">May 2017- Jul 2017</tspan><tspan class="cls-10"><tspan x="0" y="63">Project Manager : Sandeep Karmakar</tspan><tspan x="0" y="78">As internship project I redesigned a component of </tspan><tspan x="0" y="93">PRISM web console that is used to monitor and </tspan><tspan x="0" y="108">troubleshoot cluster health.</tspan></tspan></text>
    <text id="Moments_Semester_Thesis_Project_Feb_2017-_Apr_2017_Project_Guide_:_Sharmishtha_Banerjee_An_information_management_system_design_for_design_department_IIT_Guwahati" data-name="Moments
Semester Thesis Project
Feb 2017- Apr 2017
Project Guide : Sharmishtha Banerjee
An information management system design for design department, IIT Guwahati" class="cls-9" transform="translate(36 1414)"><tspan x="0" y="13">Moments</tspan><tspan x="0" y="30">Semester Thesis Project</tspan><tspan x="0" y="47">Feb 2017- Apr 2017</tspan><tspan class="cls-10"><tspan x="0" y="63">Project Guide : Sharmishtha Banerjee</tspan><tspan x="0" y="78">An information management system design for design </tspan><tspan x="0" y="93">department, IIT Guwahati</tspan></tspan></text>
    <text id="Outreach_Cognizant_CSR_Project_May_2014-_May_2016_An_app_for_handling_CSR_events_of_Cognizant._Designed_the_complete_app_as_well_as_coded_the_android_version." data-name="Outreach
Cognizant CSR Project
May 2014- May 2016
An app for handling CSR events of Cognizant. Designed the complete app as well as coded the android version." class="cls-9" transform="translate(36 1553)"><tspan x="0" y="13">Outreach</tspan><tspan x="0" y="30">Cognizant CSR Project</tspan><tspan x="0" y="47">May 2014- May 2016</tspan><tspan class="cls-10"><tspan x="0" y="63">An app for handling CSR events of Cognizant. Designed </tspan><tspan x="0" y="78">the complete app as well as coded the android version.</tspan></tspan></text>
    <text id="Daybook_Avion_Labs_Google_Play_Store_JUL_2016-_Ongoing_Designed_and_developed_an_expense_manager_app_with_focus_on_simplicity." data-name="Daybook
Avion Labs, Google Play Store
JUL 2016- Ongoing
Designed and developed an expense manager app with focus on simplicity." class="cls-9" transform="translate(36 1665)"><tspan x="0" y="13">Daybook</tspan><tspan x="0" y="30">Avion Labs, Google Play Store</tspan><tspan x="0" y="47">JUL 2016- Ongoing</tspan><tspan class="cls-10"><tspan x="0" y="63">Designed and developed an expense manager app with </tspan><tspan x="0" y="79">focus on simplicity</tspan><tspan class="cls-13" y="79">.</tspan></tspan></text>
    <text id="UCCW_clock_widget_skins_Aviotron_Labs_Google_Play_Store_Dec_2013-_Dec_2014_Built_a_range_of_clock_widget_skins_for_UCCW_app." data-name="UCCW clock widget skins
Aviotron Labs, Google Play Store
Dec 2013- Dec 2014
Built a range of clock widget skins for UCCW app." class="cls-9" transform="translate(36 1791)"><tspan x="0" y="13">UCCW clock widget skins</tspan><tspan x="0" y="30">Aviotron Labs, Google Play Store</tspan><tspan x="0" y="47">Dec 2013- Dec 2014</tspan><tspan class="cls-10"><tspan x="0" y="63">Built a range of clock widget skins for UCCW app.</tspan></tspan></text>
    <g id="project_01">
      <g id="Rectangle_2" data-name="Rectangle 2" class="cls-2" transform="translate(22 1109)">
        <rect class="cls-14" width="334" height="114" rx="15"/>
        <rect class="cls-15" x="0.5" y="0.5" width="333" height="113" rx="14.5"/>
      </g>
      <text id="Animated_Short_Movie_Aug_2017-_April_2018_Project_Guide_:_Sheetal_Gokhale_Worked_on_an_2D_animated_short_movie_as_Masters_thesis_project." data-name="Animated Short Movie
Aug 2017- April 2018
Project Guide : Sheetal Gokhale
Worked on an 2D animated short movie as Masters thesis project." class="cls-9" transform="translate(36 1125)"><tspan x="0" y="13">Animated Short Movie</tspan><tspan x="0" y="30">Aug 2017- April 2018</tspan><tspan class="cls-10"><tspan x="0" y="46">Project Guide : Sheetal Gokhale</tspan><tspan x="0" y="61">Worked on an 2D animated short movie as Masters </tspan><tspan x="0" y="76">thesis project.</tspan></tspan></text>
    </g>
  </g>
</svg>
